<svg width="900" height="132" viewBox="0 0 900 132" fill="none" xmlns="http://www.w3.org/2000/svg">
<path d="M169.2 25.6699H197.58V55.9899H260.52V25.6699H289.01V106.76H260.52V75.7499H197.58V106.76H169.2V25.6699Z" fill="white"/>
<path d="M300.69 86.9999H372.82C376.42 86.9999 379.18 86.3899 381.09 85.1599C383 83.9399 383.96 82.2099 383.96 79.9899C383.96 77.7699 382.99 76.0499 381.03 74.8199C379.08 73.5899 376.34 72.9799 372.82 72.9799H337.1C325.3 72.9799 316.29 70.9699 310.05 66.9499C303.81 62.9299 300.69 57.0899 300.69 49.4299C300.69 41.7699 303.81 35.8999 310.05 31.7999C316.29 27.6999 325.31 25.6499 337.1 25.6499H413.88V45.4099H341.12C333.77 45.4099 330.09 47.6299 330.09 52.0699C330.09 54.0599 331.05 55.6299 332.96 56.7799C334.88 57.9299 337.59 58.4999 341.12 58.4999H376.85C388.72 58.4999 397.77 60.5699 404.02 64.6999C410.26 68.8399 413.38 74.8099 413.38 82.6199C413.38 90.4299 410.26 96.3999 404.02 100.54C397.78 104.68 388.72 106.74 376.85 106.74H300.69V86.9799V86.9999Z" fill="white"/>
<path d="M425.55 25.6699H505.03C516.9 25.6699 525.99 28.0999 532.31 32.9599C538.63 37.8199 541.79 44.7699 541.79 53.8099C541.79 62.8499 538.63 69.7799 532.31 74.5999C525.99 79.4199 516.9 81.8299 505.03 81.8299H453.92V106.76H425.55V25.6599V25.6699ZM499.64 63.6799C503.85 63.6799 507.08 62.8199 509.34 61.0999C511.6 59.3699 512.73 56.9399 512.73 53.8099C512.73 50.6799 511.6 48.2399 509.34 46.5199C507.08 44.7999 503.84 43.9299 499.64 43.9299H453.92V63.6899H499.64V63.6799Z" fill="white"/>
<path d="M575.01 25.6699H618.31L665.98 106.76H635.88L627.84 92.7499H564.32L556.28 106.76H527.33L575 25.6699H575.01ZM618.31 75.1699L600.5 44.6199H591.66L573.86 75.1699H618.31Z" fill="white"/>
<path d="M719.35 45.4199C710.08 45.4199 702.97 47.1799 697.98 50.6999C693 54.2199 690.51 59.3899 690.51 66.2099C690.51 73.0299 693 78.0999 697.98 81.6599C702.96 85.2199 710.08 86.9999 719.35 86.9999H780.11V106.76H716.82C698.82 106.76 685.04 103.27 675.47 96.3099C665.9 89.3399 661.12 79.3099 661.12 66.2099C661.12 53.1099 665.9 43.0899 675.47 36.1199C685.04 29.1499 698.83 25.6699 716.82 25.6699H780.11V45.4299H719.35V45.4199Z" fill="white"/>
<path d="M791.92 25.6699H899.32V43.9299H819.26V57.9399H898.17V73.4499H819.26V78.2699C819.26 81.9399 820.39 84.5699 822.64 86.1399C824.9 87.7099 828.59 88.4999 833.73 88.4999H899.32V106.76H826.61C814.36 106.76 805.51 104.56 800.07 100.16C794.63 95.7499 791.92 88.5399 791.92 78.5099V25.6699Z" fill="white"/>
<path d="M140.43 79.7C140.43 67.41 134.6 55.7 124.8 48.28V18.54C124.8 18.54 124.8 18.49 124.8 18.47C124.82 17.23 124.89 15.98 125.03 14.77V14.69C125.19 13.3 125.42 11.93 125.7 10.61L127.85 0.73996H96.6398L99.1498 10.12C99.4998 11.66 99.7598 13.22 99.9298 14.74C99.9298 14.77 100.23 17.34 100.23 19.37V40.31H100.1C99.0898 40.33 98.0498 40.4 97.0098 40.5C96.8398 40.52 96.6798 40.53 96.5398 40.56C94.4998 40.81 92.3598 41.24 90.1498 41.83L90.0998 41.85C87.9598 42.43 85.7798 43.15 83.6298 43.99C81.4898 44.83 79.2998 45.82 77.1398 46.93C73.9798 48.55 70.7798 50.47 67.6398 52.63C62.7998 55.97 59.2098 58.38 56.3398 60.24C52.9498 62.43 50.3598 63.97 48.1698 65.1L48.0998 65.14C45.4698 66.67 42.5998 67.65 39.5898 68.04H39.4698L39.4198 68.06C38.4898 68.17 37.5498 68.23 36.6198 68.23C29.1998 68.23 22.1998 64.62 17.8898 58.56L16.2798 56.3C14.4398 52.95 13.4798 49.2 13.4798 45.3C13.4798 41.63 14.3398 38.06 15.9998 34.83L17.4198 32.63C17.5698 32.4 17.7298 32.17 17.8898 31.95L18.0698 31.7V31.53C18.4598 31.07 18.8898 30.6 19.3598 30.09L19.3798 30.07C20.0298 29.33 20.7398 28.62 21.4798 27.97L21.4998 27.95C26.7198 23.07 33.0898 19.43 39.9098 17.44C42.0498 16.81 44.2598 16.33 46.4798 16.03C48.3298 15.77 50.6298 15.45 52.8598 15.45H86.4398L69.1098 0.72998H13.0798L15.2098 10.1C15.5598 11.63 15.8198 13.18 15.9898 14.73C16.0498 15.26 16.0898 15.74 16.1198 16.2V21.16C6.04981 28.57 0.0498047 40.4 0.0498047 52.91C0.0498047 65.42 6.04981 77.25 16.1198 84.66V113.75C16.1198 115.19 16.0398 116.63 15.8798 118.04C15.7298 119.41 15.5098 120.76 15.2198 122.08L13.0798 131.94H43.7298L41.5998 122.58C41.2598 121.08 40.9998 119.55 40.8298 118.04C40.6498 116.51 40.5698 114.95 40.5698 113.38V92.29C42.2098 92.25 43.8498 92.1 45.4598 91.85H45.4998C45.6398 91.82 45.7698 91.8 45.8998 91.78C46.1798 91.73 46.4698 91.68 46.7598 91.62C46.8798 91.6 47.0098 91.57 47.1298 91.55L47.2998 91.52C47.2998 91.52 47.3498 91.52 47.3598 91.51C47.5798 91.47 47.7998 91.42 48.0098 91.37H48.3198L48.3998 91.28C48.4398 91.28 48.4798 91.26 48.5098 91.25C48.6498 91.22 48.7898 91.19 48.9298 91.15L49.0198 91.13C49.1098 91.11 49.1998 91.09 49.2898 91.06L49.5298 91C49.5298 91 49.5298 91 49.5398 91H49.5598C49.5598 91 49.5698 90.99 49.5798 90.99L49.6498 90.97C52.1098 90.35 54.6498 89.52 57.1898 88.51C59.2098 87.71 61.2798 86.76 63.3598 85.7C66.5398 84.07 69.7298 82.15 72.8498 80C77.8198 76.57 81.5098 74.09 84.4698 72.19C92.8498 66.8 96.4298 65.37 100.57 64.67L101.3 64.58C102.26 64.46 103.24 64.4 104.21 64.4C111.7 64.4 118.75 68.07 123.05 74.23C125.75 78.09 127.18 82.64 127.18 87.37C127.18 92.1 125.75 96.64 123.06 100.5L121.86 102.08C121.05 103.05 120.16 103.95 119.21 104.77L119.18 104.8C114 109.65 107.69 113.28 100.91 115.3C98.8598 115.91 96.7298 116.38 94.5998 116.7C92.3598 117.03 90.0698 117.2 87.7798 117.2H54.6998L72.3998 131.95H127.96L125.83 122.59C125.49 121.09 125.23 119.56 125.06 118.05C124.88 116.52 124.8 114.96 124.8 113.39V111.14C134.6 103.72 140.43 92.01 140.43 79.72V79.7Z" fill="white"/>
</svg>
