<svg width="48" height="48" viewBox="0 0 48 48" fill="none" xmlns="http://www.w3.org/2000/svg">
<g filter="url(#filter0_d_529_465)">
<path fill-rule="evenodd" clip-rule="evenodd" d="M11.506 2.61922C12.7658 2.1153 14.6455 1.66669 17.3333 1.66669C20.1557 1.66669 22.4945 2.60249 24.5262 3.4154C24.5572 3.42782 24.5882 3.4402 24.619 3.45255C26.7325 4.29795 28.5322 5.00002 30.6667 5.00002C32.9788 5.00002 34.4325 4.6153 35.256 4.28589C35.6693 4.12059 35.9315 3.96622 36.0703 3.87369C36.1393 3.8276 36.179 3.79617 36.1922 3.78535C36.6683 3.33777 37.3643 3.2089 37.9712 3.46022C38.594 3.71819 39 4.32592 39 5.00002V25C39 25.442 38.8243 25.866 38.5118 26.1785L37.3333 25C38.5118 26.1785 38.511 26.1794 38.5102 26.1804L38.5047 26.1857C38.502 26.1882 38.4995 26.1909 38.4967 26.1935C38.4912 26.1989 38.4852 26.2047 38.4788 26.2109C38.4658 26.223 38.4512 26.2369 38.4345 26.252C38.4012 26.2822 38.3603 26.3179 38.3115 26.3582C38.2137 26.4387 38.084 26.5374 37.9193 26.6472C37.5893 26.8672 37.1223 27.1295 36.494 27.3809C35.2342 27.8847 33.3545 28.3334 30.6667 28.3334C27.8443 28.3334 25.5055 27.3975 23.4738 26.5847L23.381 26.5475C21.2675 25.702 19.4678 25 17.3333 25C15.0212 25 13.5675 25.3847 12.744 25.7142C12.3307 25.8795 12.0685 26.0339 11.9297 26.1264C11.8606 26.1724 11.821 26.2039 11.8079 26.2147C11.3317 26.6624 10.6356 26.7912 10.0289 26.5399C9.40607 26.2819 9 25.6742 9 25V5.00002C9 4.55799 9.1756 4.13407 9.48815 3.8215L10.6667 5.00002C9.48815 3.8215 9.48903 3.82064 9.4899 3.81977L9.4917 3.81799C9.4929 3.81679 9.49413 3.81555 9.4954 3.8143C9.49793 3.8118 9.50057 3.8092 9.50333 3.80652C9.50883 3.80114 9.51482 3.79537 9.52125 3.78922C9.53412 3.77695 9.54885 3.76319 9.56548 3.74807C9.59877 3.71782 9.63963 3.68212 9.68853 3.64185C9.78638 3.56127 9.91603 3.46264 10.0807 3.35285C10.4107 3.13289 10.8776 2.87059 11.506 2.61922ZM12.3333 5.89677V22.328C13.546 21.9545 15.1804 21.6667 17.3333 21.6667C20.1557 21.6667 22.4945 22.6025 24.5262 23.4154L24.619 23.4525C26.7325 24.298 28.5322 25 30.6667 25C32.9788 25 34.4325 24.6154 35.256 24.2859C35.4147 24.2225 35.551 24.1607 35.6667 24.1032V7.67202C34.454 8.04554 32.8197 8.33335 30.6667 8.33335C27.8443 8.33335 25.5055 7.39755 23.4738 6.58464C23.4428 6.57222 23.4118 6.55984 23.381 6.54749C21.2675 5.70209 19.4678 5.00002 17.3333 5.00002C15.0212 5.00002 13.5675 5.38474 12.744 5.71415C12.5854 5.77759 12.449 5.83942 12.3333 5.89677ZM11.8417 26.182C11.8417 26.1822 11.8418 26.1819 11.8417 26.182V26.182Z" fill="url(#paint0_linear_529_465)"/>
<path fill-rule="evenodd" clip-rule="evenodd" d="M10.6667 23.3333C11.5871 23.3333 12.3333 24.0795 12.3333 25V36.6666C12.3333 37.5871 11.5871 38.3333 10.6667 38.3333C9.7462 38.3333 9 37.5871 9 36.6666V25C9 24.0795 9.7462 23.3333 10.6667 23.3333Z" fill="url(#paint1_linear_529_465)"/>
</g>
<defs>
<filter id="filter0_d_529_465" x="0" y="0" width="48" height="48" filterUnits="userSpaceOnUse" color-interpolation-filters="sRGB">
<feFlood flood-opacity="0" result="BackgroundImageFix"/>
<feColorMatrix in="SourceAlpha" type="matrix" values="0 0 0 0 0 0 0 0 0 0 0 0 0 0 0 0 0 0 127 0" result="hardAlpha"/>
<feOffset dy="4"/>
<feGaussianBlur stdDeviation="2"/>
<feComposite in2="hardAlpha" operator="out"/>
<feColorMatrix type="matrix" values="0 0 0 0 0 0 0 0 0 0 0 0 0 0 0 0 0 0 0.25 0"/>
<feBlend mode="normal" in2="BackgroundImageFix" result="effect1_dropShadow_529_465"/>
<feBlend mode="normal" in="SourceGraphic" in2="effect1_dropShadow_529_465" result="shape"/>
</filter>
<linearGradient id="paint0_linear_529_465" x1="24" y1="1.66669" x2="24" y2="28.3334" gradientUnits="userSpaceOnUse">
<stop stop-color="#17F58A"/>
<stop offset="1" stop-color="#14CB73"/>
</linearGradient>
<linearGradient id="paint1_linear_529_465" x1="10.6667" y1="23.3333" x2="10.6667" y2="38.3333" gradientUnits="userSpaceOnUse">
<stop stop-color="#17F58A"/>
<stop offset="1" stop-color="#14CB73"/>
</linearGradient>
</defs>
</svg>
