<svg width="40" height="40" viewBox="0 0 40 40" fill="none" xmlns="http://www.w3.org/2000/svg">
<path fill-rule="evenodd" clip-rule="evenodd" d="M7.50602 2.61922C8.76582 2.1153 10.6455 1.66669 13.3333 1.66669C16.1557 1.66669 18.4945 2.60249 20.5262 3.4154C20.5572 3.42782 20.5882 3.4402 20.619 3.45255C22.7325 4.29795 24.5322 5.00002 26.6667 5.00002C28.9788 5.00002 30.4325 4.6153 31.256 4.28589C31.6693 4.12059 31.9315 3.96622 32.0703 3.87369C32.1393 3.8276 32.179 3.79617 32.1922 3.78535C32.6683 3.33777 33.3643 3.2089 33.9712 3.46022C34.594 3.71819 35 4.32592 35 5.00002V25C35 25.442 34.8243 25.866 34.5118 26.1785L33.3333 25C34.5118 26.1785 34.511 26.1794 34.5102 26.1804L34.5047 26.1857C34.502 26.1882 34.4995 26.1909 34.4967 26.1935C34.4912 26.1989 34.4852 26.2047 34.4788 26.2109C34.4658 26.223 34.4512 26.2369 34.4345 26.252C34.4012 26.2822 34.3603 26.3179 34.3115 26.3582C34.2137 26.4387 34.084 26.5374 33.9193 26.6472C33.5893 26.8672 33.1223 27.1295 32.494 27.3809C31.2342 27.8847 29.3545 28.3334 26.6667 28.3334C23.8443 28.3334 21.5055 27.3975 19.4738 26.5847L19.381 26.5475C17.2675 25.702 15.4678 25 13.3333 25C11.0212 25 9.56752 25.3847 8.74398 25.7142C8.33073 25.8795 8.0685 26.0339 7.92972 26.1264C7.86058 26.1724 7.82105 26.2039 7.80788 26.2147C7.33165 26.6624 6.63562 26.7912 6.02887 26.5399C5.40607 26.2819 5 25.6742 5 25V5.00002C5 4.55799 5.1756 4.13407 5.48815 3.8215L6.66667 5.00002C5.48815 3.8215 5.48903 3.82064 5.4899 3.81977L5.4917 3.81799C5.4929 3.81679 5.49413 3.81555 5.4954 3.8143C5.49793 3.8118 5.50057 3.8092 5.50333 3.80652C5.50883 3.80114 5.51482 3.79537 5.52125 3.78922C5.53412 3.77695 5.54885 3.76319 5.56548 3.74807C5.59877 3.71782 5.63963 3.68212 5.68853 3.64185C5.78638 3.56127 5.91603 3.46264 6.0807 3.35285C6.41067 3.13289 6.8776 2.87059 7.50602 2.61922ZM8.33333 5.89677V22.328C9.546 21.9545 11.1804 21.6667 13.3333 21.6667C16.1557 21.6667 18.4945 22.6025 20.5262 23.4154L20.619 23.4525C22.7325 24.298 24.5322 25 26.6667 25C28.9788 25 30.4325 24.6154 31.256 24.2859C31.4147 24.2225 31.551 24.1607 31.6667 24.1032V7.67202C30.454 8.04554 28.8197 8.33335 26.6667 8.33335C23.8443 8.33335 21.5055 7.39755 19.4738 6.58464C19.4428 6.57222 19.4118 6.55984 19.381 6.54749C17.2675 5.70209 15.4678 5.00002 13.3333 5.00002C11.0212 5.00002 9.56752 5.38474 8.74398 5.71415C8.58538 5.77759 8.44902 5.83942 8.33333 5.89677ZM7.84173 26.182C7.84167 26.1822 7.8418 26.1819 7.84173 26.182V26.182Z" fill="url(#paint0_linear_852_151)"/>
<path fill-rule="evenodd" clip-rule="evenodd" d="M6.66667 23.3333C7.58713 23.3333 8.33333 24.0795 8.33333 25V36.6666C8.33333 37.5871 7.58713 38.3333 6.66667 38.3333C5.7462 38.3333 5 37.5871 5 36.6666V25C5 24.0795 5.7462 23.3333 6.66667 23.3333Z" fill="url(#paint1_linear_852_151)"/>
<defs>
<linearGradient id="paint0_linear_852_151" x1="20" y1="1.66669" x2="20" y2="28.3334" gradientUnits="userSpaceOnUse">
<stop stop-color="white"/>
<stop offset="1" stop-color="#999999"/>
</linearGradient>
<linearGradient id="paint1_linear_852_151" x1="6.66667" y1="23.3333" x2="6.66667" y2="38.3333" gradientUnits="userSpaceOnUse">
<stop stop-color="white"/>
<stop offset="1" stop-color="#999999"/>
</linearGradient>
</defs>
</svg>
