<svg width="15" height="18" viewBox="0 0 15 18" fill="none" xmlns="http://www.w3.org/2000/svg">
<g clip-path="url(#clip0_2_7)">
<path d="M7.75533 8.55876C7.75533 8.55876 2.9474 9.16698 2.99757 6.46001C3.05658 3.26654 6.47094 0.794216 9.15437 0.112961C9.15437 0.112961 6.14173 0.673747 4.10028 2.05053C2.05883 3.42731 0.411926 5.34557 0.411926 6.96874C0.411926 8.59192 2.07569 9.37853 2.83275 9.50949C3.58981 9.64045 5.17053 9.72272 7.75533 8.55876Z" fill="white"/>
<path d="M0.863159 17.4118C0.863159 17.4118 5.02868 15.9188 8.33723 12.936C11.6458 9.95328 12.238 5.35366 5.42871 6.67293C5.42871 6.67293 8.21415 5.5224 10.2257 5.5224C12.2372 5.5224 14.5577 5.90017 14.5577 8.22223C14.5594 11.3783 8.548 17.0806 0.863159 17.4118Z" fill="white"/>
<path d="M13.0698 1.37696C13.5137 2.14258 13.1634 3.17139 12.2874 3.67467C11.4115 4.17795 10.3421 3.96598 9.89823 3.20035C9.45436 2.43473 9.82067 1.4332 10.6802 0.902639C11.4279 0.440913 12.6259 0.611332 13.0698 1.37696Z" fill="white"/>
</g>
<defs>
<clipPath id="clip0_2_7">
<rect width="14.1468" height="17.2992" fill="white" transform="translate(0.4104 0.112869)"/>
</clipPath>
</defs>
</svg>
